<?xml version="1.0" standalone="no"?>
<!DOCTYPE svg PUBLIC "-//W3C//DTD SVG 20010904//EN"
 "http://www.w3.org/TR/2001/REC-SVG-20010904/DTD/svg10.dtd">
<svg version="1.0" xmlns="http://www.w3.org/2000/svg"
 width="300.000000pt" height="78.000000pt" viewBox="0 0 300.000000 78.000000"
 preserveAspectRatio="xMidYMid meet">
<metadata>
Created by potrace 1.10, written by Peter Selinger 2001-2011
</metadata>
<g transform="translate(0.000000,78.000000) scale(0.100000,-0.100000)"
fill="#000000" stroke="none">
<path d="M164 622 c-85 -27 -123 -127 -76 -200 13 -20 13 -24 -1 -40 -8 -9
-15 -28 -15 -42 0 -14 -2 -33 -4 -44 -7 -40 97 -80 166 -62 31 8 96 70 96 93
0 13 6 9 19 -12 26 -44 78 -85 109 -86 15 0 35 -2 45 -4 51 -10 148 86 147
146 -1 13 -1 66 -1 117 1 118 -6 129 -76 129 -41 0 -56 -4 -63 -17 -5 -9 -10
-63 -11 -118 -1 -56 -5 -99 -10 -96 -5 3 -9 52 -9 108 0 71 -4 107 -12 114
-17 13 -104 10 -119 -5 -6 -6 -12 -40 -14 -75 -1 -34 -3 -76 -4 -91 l-1 -29
-26 31 c-21 26 -24 34 -14 46 7 8 10 22 6 30 -3 8 0 26 6 40 14 30 -7 54 -60
66 -42 10 -49 10 -78 1z m116 -37 c25 -15 -5 -26 -55 -20 -49 7 -56 5 -79 -18
-30 -31 -34 -77 -8 -99 9 -9 36 -25 60 -37 45 -23 57 -56 27 -81 -20 -17 -102
-7 -123 14 -23 23 -7 32 31 18 44 -16 77 -15 77 1 0 7 -16 19 -35 25 -48 18
-85 65 -85 109 0 27 8 43 35 70 34 34 38 35 90 30 30 -3 59 -8 65 -12z m110
-109 c0 -118 1 -126 25 -154 31 -36 66 -46 111 -32 53 18 64 50 64 190 0 103
2 120 16 120 14 0 15 -18 12 -141 l-3 -141 -32 -28 c-63 -56 -156 -47 -200 19
-21 31 -23 45 -23 162 0 108 2 129 15 129 13 0 15 -20 15 -124z m70 -2 c4
-104 7 -119 23 -122 39 -8 47 14 47 135 0 87 3 114 13 111 8 -3 13 -39 15
-121 2 -106 1 -118 -18 -137 -20 -20 -65 -26 -86 -12 -25 17 -34 56 -34 155 0
57 3 107 7 111 20 20 28 -10 33 -120z m-211 55 c36 -13 36 -36 0 -30 -48 7
-62 6 -66 -6 -2 -6 11 -16 30 -22 117 -39 123 -179 8 -211 -39 -11 -113 4
-131 25 -15 18 4 29 29 15 29 -15 103 -12 128 5 53 37 33 103 -42 136 -51 22
-65 51 -39 80 20 22 38 24 83 8z"/>
<path d="M721 622 c-50 -8 -54 -21 -54 -193 -1 -150 1 -161 21 -181 17 -17 24
-19 36 -9 11 9 20 10 35 2 29 -16 61 21 61 71 0 35 2 38 39 48 24 6 52 24 70
45 l31 36 0 -84 c0 -70 3 -87 20 -105 17 -18 25 -20 41 -11 15 8 24 7 35 -2
25 -20 54 16 54 67 0 42 1 43 36 50 20 4 52 20 71 37 19 16 33 26 32 21 -6
-22 27 -96 54 -124 66 -67 154 -82 235 -41 50 26 80 55 99 100 13 30 12 35 -3
52 -9 10 -24 19 -33 19 -9 0 -2 9 17 20 32 20 41 49 22 73 -5 7 -21 26 -35 44
-83 103 -256 94 -325 -19 l-18 -29 -18 37 c-28 56 -67 75 -163 76 -89 2 -121
-14 -121 -59 0 -23 -2 -22 -31 11 -19 22 -42 37 -62 40 -54 8 -121 12 -146 8z
m810 -38 c36 -18 89 -81 89 -104 0 -31 -23 -23 -41 13 -9 17 -31 43 -50 55
-28 20 -44 23 -91 20 -84 -6 -130 -56 -130 -144 0 -57 27 -100 79 -125 74 -36
159 -4 199 72 17 33 34 38 34 10 0 -32 -44 -85 -90 -109 -83 -43 -194 -12
-234 66 -83 160 77 327 235 246z m-651 1 c33 -17 60 -61 60 -97 0 -33 -36 -87
-66 -98 -14 -6 -39 -10 -55 -10 -29 0 -29 0 -29 -60 0 -47 -3 -60 -15 -60 -12
0 -15 15 -15 75 l0 75 39 0 c57 0 86 14 101 49 10 25 10 37 0 60 -15 37 -53
53 -119 49 l-53 -3 -1 -150 c-2 -126 -4 -150 -17 -150 -13 0 -15 25 -18 155
-1 85 0 160 2 167 8 19 149 17 186 -2z m289 4 c76 -27 82 -157 10 -195 -16 -8
-44 -14 -64 -14 l-35 0 0 -60 c0 -47 -3 -60 -15 -60 -12 0 -15 15 -15 75 l0
75 49 0 c63 0 101 28 101 75 0 58 -27 79 -109 83 l-71 4 0 -156 c0 -132 -2
-156 -15 -156 -13 0 -15 25 -15 163 0 90 3 167 7 170 11 11 137 8 172 -4z
m-318 -59 c29 -16 26 -67 -5 -82 -26 -11 -56 -5 -56 11 0 5 10 11 23 13 37 5
27 33 -13 33 -25 0 -36 5 -38 18 -3 14 4 17 33 17 20 0 45 -5 56 -10z m297 -6
c12 -8 22 -23 22 -33 0 -24 -34 -54 -56 -49 -27 5 -28 26 -2 30 39 5 28 33
-14 33 -40 0 -54 8 -43 24 9 16 67 13 93 -5z m385 -24 c30 -34 36 -80 15 -126
-15 -33 -76 -62 -117 -56 -37 5 -90 57 -74 73 7 7 18 3 36 -15 69 -69 178 21
122 101 -29 41 -99 38 -132 -6 -9 -13 -14 -13 -24 -4 -10 10 -9 17 7 34 44 50
122 49 167 -1z m-763 -40 c0 -11 -4 -20 -10 -20 -5 0 -10 9 -10 20 0 11 5 20
10 20 6 0 10 -9 10 -20z m300 -6 c0 -8 -4 -14 -10 -14 -5 0 -10 9 -10 21 0 11
5 17 10 14 6 -3 10 -13 10 -21z m424 4 c7 -11 7 -26 0 -45 -12 -37 -54 -43
-91 -13 -18 14 -35 19 -50 15 -18 -4 -23 -1 -23 15 0 17 4 19 25 14 17 -4 33
1 52 15 31 25 71 24 87 -1z"/>
<path d="M1697 621 c-32 -9 -37 -35 -37 -195 0 -133 3 -162 16 -177 13 -14 21
-16 35 -8 12 6 25 6 37 0 10 -5 24 -6 32 -1 8 5 22 5 32 -1 13 -7 25 -5 43 7
17 11 25 12 25 4 0 -17 51 -8 64 12 8 14 4 27 -21 62 l-32 45 24 29 c13 16 29
41 34 55 7 19 15 24 30 20 19 -5 21 -13 21 -108 0 -111 9 -133 52 -122 12 4
28 1 36 -5 10 -9 18 -7 33 8 17 18 20 34 20 121 l0 101 32 13 c18 7 35 14 39
16 3 2 7 -47 7 -111 1 -63 4 -121 7 -129 7 -19 39 -28 53 -14 7 7 15 6 26 -3
14 -11 19 -10 35 6 18 17 20 35 21 182 0 107 -3 168 -11 177 -12 15 -95 18
-121 4 -9 -5 -21 -3 -28 4 -18 18 -240 11 -262 -9 -16 -14 -20 -14 -49 1 -29
15 -159 26 -193 16z m167 -31 c31 -11 66 -65 66 -100 0 -33 -36 -91 -61 -97
-10 -3 -19 -7 -19 -9 0 -2 18 -27 39 -56 38 -50 43 -68 18 -68 -12 0 -97 122
-97 138 0 4 15 13 34 20 44 16 64 59 46 101 -15 37 -53 53 -119 49 l-53 -3 -1
-150 c-2 -126 -4 -150 -17 -150 -13 0 -15 25 -18 155 -1 85 0 160 2 167 6 16
141 18 180 3z m326 -5 c0 -12 -20 -15 -119 -15 -109 0 -142 6 -124 24 3 3 60
6 125 6 98 0 118 -3 118 -15z m82 -155 c0 -143 -2 -165 -16 -168 -14 -3 -16
16 -16 161 0 90 3 167 7 171 20 19 25 -14 25 -164z m63 -1 c0 -127 -3 -164
-13 -164 -10 0 -13 36 -13 160 0 88 0 164 1 168 0 5 6 7 13 5 9 -4 12 -46 12
-169z m-494 101 c29 -16 26 -67 -5 -82 -26 -11 -56 -5 -56 11 0 5 10 11 23 13
37 5 27 33 -13 33 -25 0 -36 5 -38 18 -3 14 4 17 33 17 20 0 45 -5 56 -10z
m209 3 c0 -5 1 -66 1 -138 1 -112 -1 -130 -15 -133 -14 -3 -16 12 -16 122 l0
126 -32 -2 c-24 -2 -33 2 -36 15 -3 14 4 17 47 17 28 0 51 -3 51 -7z m138 -10
c-3 -14 -12 -17 -36 -15 l-32 3 0 -126 c0 -112 -2 -126 -16 -123 -14 3 -17 21
-16 133 0 72 1 133 1 138 1 4 24 7 52 7 43 0 50 -3 47 -17z m-408 -109 c0 -1
-9 -2 -20 -1 -14 1 -19 8 -18 27 3 41 10 44 24 10 8 -18 14 -34 14 -36z m30
-79 c22 -30 40 -59 40 -65 0 -22 -29 -9 -49 23 l-21 32 0 -32 c0 -23 -5 -33
-15 -33 -12 0 -15 14 -15 65 0 36 4 65 10 65 5 0 28 -25 50 -55z"/>
<path d="M2408 610 c-16 -13 -19 -35 -21 -173 -4 -188 -1 -195 72 -195 28 0
55 6 60 12 5 6 11 32 13 56 2 36 7 46 23 48 29 4 50 39 34 58 -9 11 -9 17 1
29 7 9 10 18 6 22 -7 7 22 43 36 43 4 0 23 -23 40 -52 28 -46 32 -61 33 -124
0 -87 11 -102 68 -99 73 3 77 8 77 93 0 71 2 80 42 146 24 39 46 73 50 74 14
6 9 59 -7 72 -12 10 -20 9 -39 -3 -21 -14 -25 -14 -38 0 -13 12 -19 13 -37 1
-11 -7 -21 -15 -21 -18 0 -4 -6 -13 -12 -21 -7 -8 -12 -13 -11 -10 1 2 -11 17
-27 35 -26 27 -32 30 -50 18 -12 -7 -26 -10 -32 -6 -6 4 -63 8 -127 8 -88 1
-119 -2 -133 -14z m292 -92 l60 -92 0 -89 c0 -66 -3 -88 -12 -85 -9 3 -15 34
-18 89 -5 81 -7 87 -58 166 -46 70 -57 103 -36 103 3 0 32 -41 64 -92z m48 41
l29 -50 27 45 c15 25 33 46 41 46 8 0 15 -3 15 -6 0 -10 -70 -123 -79 -129
-12 -7 -83 115 -77 132 8 21 14 16 44 -38z m182 31 c0 -6 -25 -50 -56 -100
l-56 -90 4 -72 c2 -60 0 -73 -12 -73 -12 0 -16 17 -18 78 l-3 79 61 99 c54 86
80 112 80 79z m-330 -5 c0 -12 -16 -15 -80 -15 l-80 0 0 -155 c0 -131 -2 -155
-15 -155 -13 0 -15 25 -15 163 0 90 3 167 7 170 3 4 46 7 95 7 72 0 88 -3 88
-15z m-5 -65 c0 -12 -10 -14 -47 -12 -43 3 -48 1 -48 -17 0 -17 6 -21 35 -21
25 0 35 -4 35 -16 0 -12 -10 -14 -47 -12 -46 3 -48 4 -51 36 -6 57 1 63 65 60
44 -2 58 -7 58 -18z m-25 -125 c0 -11 -11 -15 -36 -15 l-35 0 2 -57 c2 -48 0
-59 -14 -61 -15 -3 -17 6 -17 72 l0 76 50 0 c38 0 50 -4 50 -15z"/>
<path d="M960 185 c-16 -19 -5 -65 15 -65 9 0 20 12 25 26 13 33 13 32 -9 43
-14 8 -22 7 -31 -4z m32 -30 c-2 -14 -8 -25 -12 -25 -4 0 -10 11 -12 25 -4 19
-1 25 12 25 13 0 16 -6 12 -25z"/>
<path d="M1388 193 c-18 -5 -23 -28 -12 -57 9 -25 33 -19 45 11 11 31 -4 52
-33 46z m19 -38 c-10 -21 -13 -22 -19 -7 -11 27 -9 32 11 32 17 0 18 -3 8 -25z"/>
<path d="M1632 184 c-25 -17 -27 -33 -9 -58 20 -27 47 -10 47 29 0 41 -10 49
-38 29z m19 -11 c-11 -5 -11 -7 0 -14 12 -7 11 -9 -1 -9 -13 0 -13 -1 0 -10
13 -8 12 -10 -2 -10 -13 0 -18 8 -18 25 0 17 5 25 18 24 12 0 13 -2 3 -6z"/>
<path d="M353 174 c-8 -22 18 -37 36 -20 7 8 10 19 7 25 -10 16 -36 13 -43 -5z
m32 -4 c3 -5 -1 -10 -10 -10 -9 0 -13 5 -10 10 3 6 8 10 10 10 2 0 7 -4 10
-10z"/>
<path d="M433 179 c-13 -13 -4 -59 14 -66 23 -9 45 20 37 50 -6 28 -31 36 -51
16z m37 -24 c0 -17 -5 -25 -17 -24 -13 0 -14 2 -4 6 10 4 11 7 1 13 -7 4 -9
13 -6 19 12 19 26 12 26 -14z"/>
<path d="M514 176 c-3 -8 -4 -23 -2 -33 5 -25 61 -25 66 0 7 37 -51 67 -64 33z
m27 -24 c1 -11 4 -8 9 8 l8 25 1 -28 c1 -22 -3 -28 -16 -25 -10 2 -20 14 -21
27 -2 15 0 21 7 17 6 -4 11 -15 12 -24z"/>
<path d="M600 171 c-22 -42 15 -67 51 -35 14 13 16 21 8 35 -13 25 -45 24 -59
0z m45 -1 c6 -9 -17 -40 -29 -40 -8 0 -7 35 1 43 9 10 21 9 28 -3z"/>
<path d="M690 175 c-14 -17 -4 -55 14 -55 7 0 21 9 31 20 15 16 15 22 5 35
-16 19 -34 19 -50 0z m35 -5 c3 -6 -1 -17 -9 -26 -15 -14 -16 -13 -16 10 0 26
13 35 25 16z"/>
<path d="M772 178 c-19 -19 -15 -36 13 -54 21 -13 28 -14 41 -4 24 21 14 64
-16 68 -14 2 -31 -3 -38 -10z m47 -7 c17 -11 7 -41 -13 -41 -19 0 -29 17 -22
35 6 17 15 18 35 6z"/>
<path d="M796 161 c-4 -5 -2 -12 3 -15 5 -4 12 -2 15 3 4 5 2 12 -3 15 -5 4
-12 2 -15 -3z"/>
<path d="M865 171 c-9 -28 5 -51 30 -51 28 0 43 34 25 55 -17 21 -48 19 -55
-4z m43 -18 c2 -12 -3 -20 -13 -20 -9 0 -15 9 -15 25 0 29 24 25 28 -5z"/>
<path d="M1112 178 c-22 -22 -14 -55 13 -61 36 -6 54 27 29 54 -20 22 -26 23
-42 7z m37 -38 c1 -3 -8 -6 -19 -6 -23 0 -24 1 -8 29 11 21 11 21 19 2 4 -11
8 -22 8 -25z"/>
<path d="M1192 178 c-21 -21 -14 -45 17 -56 35 -12 54 3 49 40 -3 26 -45 37
-66 16z m38 -9 c0 7 4 10 9 7 5 -3 7 -15 4 -26 -4 -15 -9 -18 -18 -10 -9 8
-15 7 -18 -2 -3 -7 -6 0 -6 16 -1 24 1 27 14 16 11 -9 15 -9 15 -1z"/>
<path d="M1287 182 c-12 -17 6 -62 24 -62 20 0 36 40 24 59 -7 13 -42 15 -48
3z m38 -20 c-3 -7 -5 -18 -5 -23 0 -5 -5 -9 -11 -9 -5 0 -8 4 -4 9 3 5 1 12
-5 16 -17 10 -11 21 10 21 13 0 19 -5 15 -14z"/>
<path d="M1451 171 c-7 -13 -6 -24 3 -36 16 -22 36 -12 36 20 0 29 -26 40 -39
16z m29 -22 c0 -10 -4 -19 -10 -19 -5 0 -10 12 -10 26 0 14 4 23 10 19 6 -3
10 -15 10 -26z"/>
<path d="M1514 176 c-12 -31 1 -51 34 -54 26 -3 34 1 41 20 5 14 5 28 -1 36
-14 17 -67 15 -74 -2z m46 -12 c0 9 5 14 10 11 21 -13 11 -41 -15 -41 -20 0
-25 5 -25 26 1 24 1 24 15 6 14 -18 15 -18 15 -2z"/>
<path d="M1841 166 c-16 -30 -7 -46 25 -46 29 0 40 21 24 49 -14 28 -34 27
-49 -3z m37 -12 c10 -19 9 -21 -13 -21 -21 0 -22 2 -13 23 6 13 12 23 13 22 1
-2 7 -13 13 -24z"/>
<path d="M1921 168 c-11 -30 4 -48 39 -48 21 0 29 6 32 24 6 30 -8 46 -39 46
-15 0 -27 -8 -32 -22z m32 -25 c-3 -7 -10 -13 -15 -13 -6 0 -7 7 -4 16 3 9 6
21 6 27 0 7 4 7 9 -2 5 -8 7 -20 4 -28z m23 -11 c-11 -10 -15 4 -8 28 l7 25 3
-23 c2 -13 1 -26 -2 -30z"/>
<path d="M2036 175 c4 -8 7 -15 9 -15 2 0 5 7 9 15 3 9 0 15 -9 15 -9 0 -12
-6 -9 -15z"/>
<path d="M2104 176 c-10 -27 1 -49 28 -57 32 -8 51 9 46 43 -2 18 -10 24 -36
26 -22 2 -34 -2 -38 -12z m36 -11 c8 0 19 5 23 10 5 6 6 2 3 -8 -3 -10 -6 -22
-6 -27 0 -11 -33 -7 -42 5 -4 6 -8 17 -8 25 0 9 3 11 8 5 4 -5 14 -10 22 -10z"/>
<path d="M2211 176 c-21 -26 -9 -51 24 -51 27 0 30 3 30 30 0 23 -5 31 -21 33
-11 2 -26 -4 -33 -12z m35 -5 c11 9 14 7 14 -15 0 -14 -4 -26 -10 -26 -5 0
-10 6 -10 13 0 8 -4 7 -10 -3 -7 -11 -10 -8 -9 15 0 17 3 24 6 17 4 -10 8 -10
19 -1z"/>
<path d="M2302 178 c-27 -27 -2 -75 32 -62 12 5 16 16 14 38 -3 33 -25 45 -46
24z m29 -5 c-11 -5 -11 -7 0 -14 12 -7 11 -9 -1 -9 -13 0 -13 -1 0 -10 13 -8
12 -10 -2 -10 -13 0 -18 8 -18 25 0 17 5 25 18 24 12 0 13 -2 3 -6z"/>
<path d="M2381 176 c-17 -20 -5 -53 21 -60 26 -6 39 10 36 44 -3 29 -38 39
-57 16z m44 -24 c1 -12 -2 -22 -7 -22 -4 0 -8 6 -8 13 0 8 -4 7 -10 -3 -8 -12
-10 -11 -10 6 0 40 32 45 35 6z"/>
<path d="M2467 184 c-11 -12 -8 -51 6 -61 26 -19 42 -9 42 27 0 28 -4 36 -20
38 -12 2 -24 0 -28 -4z m34 -11 c-11 -5 -11 -7 0 -14 12 -7 11 -9 -1 -9 -13 0
-13 -1 0 -10 13 -8 12 -10 -2 -10 -13 0 -18 8 -18 25 0 17 5 25 18 24 12 0 13
-2 3 -6z"/>
<path d="M2623 174 c-8 -21 13 -42 28 -27 13 13 5 43 -11 43 -6 0 -13 -7 -17
-16z m27 -4 c0 -5 -4 -10 -10 -10 -5 0 -10 5 -10 10 0 6 5 10 10 10 6 0 10 -4
10 -10z"/>
<path d="M2022 145 c13 -29 25 -28 46 3 10 16 11 22 2 22 -6 0 -14 -10 -18
-22 l-5 -22 -8 22 c-5 12 -13 22 -18 22 -7 0 -6 -9 1 -25z"/>
<path d="M1705 140 c-3 -5 -3 -15 0 -20 8 -13 35 6 35 23 0 6 -7 2 -16 -9 -13
-16 -15 -16 -10 -1 6 19 1 23 -9 7z"/>
<path d="M2557 129 c7 -7 15 -10 18 -7 3 3 -2 9 -12 12 -14 6 -15 5 -6 -5z"/>
</g>
</svg>
